# xmcd CD database file
#
# Track frame offsets:
#	150
#	35678
#	74821
#	107409
#	140849
#	160012
#	205471
#
# Disc length: 3070 seconds
#
# Revision: 0
# Processed by: cddbd v1.5.2PL0 Copyright (c) Steve Scherf et al.
# Submitted via: CDex 1.70beta2
#
DISCID=6a0bfc07
DTITLE=Nicolas Jeandot - Pulse
DYEAR=2009
DGENRE=New Age
TTITLE0=Zenitude
TTITLE1=Cool Life
TTITLE2=Soap Bubbles
TTITLE3=Terra Incognita
TTITLE4=World Song
TTITLE5=Above the Clouds
TTITLE6=Nature Dreams
EXTD=YEAR: 2009
EXTT0=
EXTT1=
EXTT2=
EXTT3=
EXTT4=
EXTT5=
EXTT6=
PLAYORDER=
